<svg fill="#eb9934" xmlns="http://www.w3.org/2000/svg" xmlns:xlink="http://www.w3.org/1999/xlink" version="1.1" x="0px" y="0px" viewBox="0 0 18 18" enable-background="new 0 0 18 18" xml:space="preserve"><g><path d="M1.1,8.9L1.1,8.9v0.2c1.7,2.4,4,3.6,6.2,3.9c0,0,0,0,0,0c1.8,1.3,3.4,1.4,4.6,0.1c-0.2-0.3-0.3-0.8-0.4-1.1c0,0,0,0,0,0   c1.1-0.6,2.5-1.3,3.5-2.5l2,2.4V6.2l-2,2.4c-1-1.3-2.6-2.2-3.9-2.8L12,4H7L6.4,5.2h0C6,5.3,5.6,5.4,5.1,5.6   C3.6,6.2,2.2,7.3,1.1,8.9z M3.5,8c0.3,0,0.5,0.2,0.5,0.5S3.8,9,3.5,9S3,8.8,3,8.5S3.2,8,3.5,8z"></path></g></svg>